# xmcd
#
# Track frame offsets: 
#        150
#        13511
#        33552
#        45164
#        69122
#        81534
#        101241
#        117812
#        142691
#        158741
#        172307
#        191079
#        212499
#
# Disc length: 3077 seconds
#
# Revision: 0
# Processed by: cddbd v1.5.2PL0 Copyright (c) Steve Scherf et al.
# Submitted via: ExactAudioCopy v0.99pb5
#
DISCID=a80c030d
DTITLE=Lisa Mann - Satisfied
DYEAR=2012
DGENRE=Blues
TTITLE0=See You Next Tuesday
TTITLE1=Gamblin' Virgin Mary
TTITLE2=Satisfied
TTITLE3=Surrender To The Blues
TTITLE4=Have I Told You I Love You Today
TTITLE5=Always Nobody
TTITLE6=Til The Wheels Come Off
TTITLE7=Catch When I Fall
TTITLE8=I Was Gonna
TTITLE9=Alone
TTITLE10=Don't Touch Me
TTITLE11=Kingd Of Black Gold
TTITLE12=Doin' Alright
EXTD=
EXTT0=
EXTT1=
EXTT2=
EXTT3=
EXTT4=
EXTT5=
EXTT6=
EXTT7=
EXTT8=
EXTT9=
EXTT10=
EXTT11=
EXTT12=
PLAYORDER=
